%FSLAX45Y45*%
G04 Gerber Fmt 4.5, Leading zero omitted, Abs format (unit mm)*
G04 Created by KiCad (PCBNEW 4.0.2-stable) date 25.06.2016 12:23:23*
%MOMM*%
G01*
G04 APERTURE LIST*
%ADD10C,0.127000*%
%ADD11C,0.150000*%
%ADD12C,0.200000*%
%ADD13C,0.300000*%
G04 APERTURE END LIST*
D10*
D11*
X17933100Y-5900000D02*
X17933100Y-9500000D01*
X11633100Y-9500000D02*
X17933100Y-9500000D01*
X11633100Y-5900000D02*
X17933100Y-5900000D01*
X11633100Y-9500000D02*
X11633100Y-5900000D01*
D12*
X11771950Y-6406200D02*
X11811950Y-6446200D01*
X11811950Y-6406200D02*
X11771950Y-6446200D01*
X11771950Y-7549200D02*
X11811950Y-7589200D01*
X11811950Y-7549200D02*
X11771950Y-7589200D01*
X11771950Y-8539800D02*
X11811950Y-8579800D01*
X11811950Y-8539800D02*
X11771950Y-8579800D01*
X12089450Y-7917500D02*
X12129450Y-7957500D01*
X12129450Y-7917500D02*
X12089450Y-7957500D01*
X12240692Y-8555242D02*
X12280692Y-8595242D01*
X12280692Y-8555242D02*
X12240692Y-8595242D01*
X12559350Y-6342700D02*
X12599350Y-6382700D01*
X12599350Y-6342700D02*
X12559350Y-6382700D01*
X12559350Y-6442700D02*
X12599350Y-6482700D01*
X12599350Y-6442700D02*
X12559350Y-6482700D01*
X12659350Y-6342700D02*
X12699350Y-6382700D01*
X12699350Y-6342700D02*
X12659350Y-6382700D01*
X12659350Y-6442700D02*
X12699350Y-6482700D01*
X12699350Y-6442700D02*
X12659350Y-6482700D01*
X12691644Y-8388017D02*
X12731644Y-8428017D01*
X12731644Y-8388017D02*
X12691644Y-8428017D01*
X12694076Y-8848031D02*
X12734076Y-8888031D01*
X12734076Y-8848031D02*
X12694076Y-8888031D01*
X12868014Y-6647041D02*
X12908014Y-6687041D01*
X12908014Y-6647041D02*
X12868014Y-6687041D01*
X12913733Y-8768064D02*
X12953733Y-8808064D01*
X12953733Y-8768064D02*
X12913733Y-8808064D01*
X13010065Y-7580459D02*
X13050065Y-7620459D01*
X13050065Y-7580459D02*
X13010065Y-7620459D01*
X13103804Y-7406923D02*
X13143804Y-7446923D01*
X13143804Y-7406923D02*
X13103804Y-7446923D01*
X13113744Y-7703224D02*
X13153744Y-7743224D01*
X13153744Y-7703224D02*
X13113744Y-7743224D01*
X13180799Y-7482688D02*
X13220799Y-7522688D01*
X13220799Y-7482688D02*
X13180799Y-7522688D01*
X13262946Y-7439872D02*
X13302946Y-7479872D01*
X13302946Y-7439872D02*
X13262946Y-7479872D01*
X13509604Y-6525052D02*
X13549604Y-6565052D01*
X13549604Y-6525052D02*
X13509604Y-6565052D01*
X13509604Y-6625052D02*
X13549604Y-6665052D01*
X13549604Y-6625052D02*
X13509604Y-6665052D01*
X13540840Y-7700821D02*
X13580840Y-7740821D01*
X13580840Y-7700821D02*
X13540840Y-7740821D01*
X13609604Y-6525052D02*
X13649604Y-6565052D01*
X13649604Y-6525052D02*
X13609604Y-6565052D01*
X13609604Y-6625052D02*
X13649604Y-6665052D01*
X13649604Y-6625052D02*
X13609604Y-6665052D01*
X13687237Y-7263958D02*
X13727237Y-7303958D01*
X13727237Y-7263958D02*
X13687237Y-7303958D01*
X13749341Y-7983013D02*
X13789341Y-8023013D01*
X13789341Y-7983013D02*
X13749341Y-8023013D01*
X13749341Y-8098865D02*
X13789341Y-8138865D01*
X13789341Y-8098865D02*
X13749341Y-8138865D01*
X13816886Y-7904217D02*
X13856886Y-7944217D01*
X13856886Y-7904217D02*
X13816886Y-7944217D01*
X13839450Y-8139609D02*
X13879450Y-8179609D01*
X13879450Y-8139609D02*
X13839450Y-8179609D01*
X13854750Y-8514400D02*
X13894750Y-8554400D01*
X13894750Y-8514400D02*
X13854750Y-8554400D01*
X13955642Y-8835224D02*
X13995642Y-8875224D01*
X13995642Y-8835224D02*
X13955642Y-8875224D01*
X13985433Y-7780411D02*
X14025433Y-7820411D01*
X14025433Y-7780411D02*
X13985433Y-7820411D01*
X14045250Y-8908100D02*
X14085250Y-8948100D01*
X14085250Y-8908100D02*
X14045250Y-8948100D01*
X14076145Y-7017180D02*
X14116145Y-7057180D01*
X14116145Y-7017180D02*
X14076145Y-7057180D01*
X14392755Y-7312235D02*
X14432755Y-7352235D01*
X14432755Y-7312235D02*
X14392755Y-7352235D01*
X14425184Y-9134845D02*
X14465184Y-9174845D01*
X14465184Y-9134845D02*
X14425184Y-9174845D01*
X14431069Y-7082478D02*
X14471069Y-7122478D01*
X14471069Y-7082478D02*
X14431069Y-7122478D01*
X14502450Y-7638100D02*
X14542450Y-7678100D01*
X14542450Y-7638100D02*
X14502450Y-7678100D01*
X14512695Y-7776296D02*
X14552695Y-7816296D01*
X14552695Y-7776296D02*
X14512695Y-7816296D01*
X14589604Y-7849729D02*
X14629604Y-7889729D01*
X14629604Y-7849729D02*
X14589604Y-7889729D01*
X14605865Y-7748889D02*
X14645865Y-7788889D01*
X14645865Y-7748889D02*
X14605865Y-7788889D01*
X14927900Y-6050600D02*
X14967900Y-6090600D01*
X14967900Y-6050600D02*
X14927900Y-6090600D01*
X15010450Y-6552202D02*
X15050450Y-6592202D01*
X15050450Y-6552202D02*
X15010450Y-6592202D01*
X15010450Y-7358700D02*
X15050450Y-7398700D01*
X15050450Y-7358700D02*
X15010450Y-7398700D01*
X15010450Y-8247700D02*
X15050450Y-8287700D01*
X15050450Y-8247700D02*
X15010450Y-8287700D01*
X15101590Y-8300477D02*
X15141590Y-8340477D01*
X15141590Y-8300477D02*
X15101590Y-8340477D01*
X15353350Y-6761800D02*
X15393350Y-6801800D01*
X15393350Y-6761800D02*
X15353350Y-6801800D01*
X15378750Y-7714300D02*
X15418750Y-7754300D01*
X15418750Y-7714300D02*
X15378750Y-7754300D01*
X15446218Y-8375101D02*
X15486218Y-8415101D01*
X15486218Y-8375101D02*
X15446218Y-8415101D01*
X15471720Y-7174646D02*
X15511720Y-7214646D01*
X15511720Y-7174646D02*
X15471720Y-7214646D01*
X15506561Y-7475520D02*
X15546561Y-7515520D01*
X15546561Y-7475520D02*
X15506561Y-7515520D01*
X15508714Y-8226288D02*
X15548714Y-8266288D01*
X15548714Y-8226288D02*
X15508714Y-8266288D01*
X15529494Y-6686813D02*
X15569494Y-6726813D01*
X15569494Y-6686813D02*
X15529494Y-6726813D01*
X15546849Y-6562423D02*
X15586849Y-6602423D01*
X15586849Y-6562423D02*
X15546849Y-6602423D01*
X16085541Y-8290486D02*
X16125541Y-8330486D01*
X16125541Y-8290486D02*
X16085541Y-8330486D01*
X16085670Y-7939036D02*
X16125670Y-7979036D01*
X16125670Y-7939036D02*
X16085670Y-7979036D01*
X16094664Y-9132723D02*
X16134664Y-9172723D01*
X16134664Y-9132723D02*
X16094664Y-9172723D01*
X16095630Y-9424628D02*
X16135630Y-9464628D01*
X16135630Y-9424628D02*
X16095630Y-9464628D01*
X16158446Y-7054651D02*
X16198446Y-7094651D01*
X16198446Y-7054651D02*
X16158446Y-7094651D01*
X16163873Y-6848430D02*
X16203873Y-6888430D01*
X16203873Y-6848430D02*
X16163873Y-6888430D01*
X16171361Y-8213045D02*
X16211361Y-8253045D01*
X16211361Y-8213045D02*
X16171361Y-8253045D01*
X16194624Y-8017227D02*
X16234624Y-8057227D01*
X16234624Y-8017227D02*
X16194624Y-8057227D01*
X16206731Y-9211929D02*
X16246731Y-9251929D01*
X16246731Y-9211929D02*
X16206731Y-9251929D01*
X16246026Y-7128361D02*
X16286026Y-7168361D01*
X16286026Y-7128361D02*
X16246026Y-7168361D01*
X16256362Y-8292520D02*
X16296362Y-8332520D01*
X16296362Y-8292520D02*
X16256362Y-8332520D01*
X16744181Y-9408492D02*
X16784181Y-9448492D01*
X16784181Y-9408492D02*
X16744181Y-9448492D01*
X16878704Y-7129341D02*
X16918704Y-7169341D01*
X16918704Y-7129341D02*
X16878704Y-7169341D01*
X16881949Y-8292396D02*
X16921949Y-8332396D01*
X16921949Y-8292396D02*
X16881949Y-8332396D01*
X12109050Y-6718300D02*
G75*
G03X12109050Y-6718300I-25000J0D01*
G01*
X12109050Y-6843300D02*
G75*
G03X12109050Y-6843300I-25000J0D01*
G01*
X12109050Y-7391400D02*
G75*
G03X12109050Y-7391400I-25000J0D01*
G01*
X12109050Y-7516400D02*
G75*
G03X12109050Y-7516400I-25000J0D01*
G01*
X12109050Y-7641400D02*
G75*
G03X12109050Y-7641400I-25000J0D01*
G01*
X12109050Y-8176100D02*
G75*
G03X12109050Y-8176100I-25000J0D01*
G01*
X12109050Y-8301100D02*
G75*
G03X12109050Y-8301100I-25000J0D01*
G01*
X12109050Y-8426100D02*
G75*
G03X12109050Y-8426100I-25000J0D01*
G01*
X12109050Y-8551100D02*
G75*
G03X12109050Y-8551100I-25000J0D01*
G01*
X12109050Y-8676100D02*
G75*
G03X12109050Y-8676100I-25000J0D01*
G01*
X12109050Y-8801100D02*
G75*
G03X12109050Y-8801100I-25000J0D01*
G01*
X14281150Y-6118800D02*
X14281150Y-6198800D01*
X14241150Y-6158800D02*
X14321150Y-6158800D01*
X14281150Y-6868800D02*
X14281150Y-6948800D01*
X14241150Y-6908800D02*
X14321150Y-6908800D01*
X17641125Y-6484175D02*
X17641125Y-6342825D01*
X17499775Y-6342825D01*
X17499775Y-6484175D01*
X17641125Y-6484175D01*
X17641125Y-7627175D02*
X17641125Y-7485825D01*
X17499775Y-7485825D01*
X17499775Y-7627175D01*
X17641125Y-7627175D01*
X17641125Y-8808275D02*
X17641125Y-8666925D01*
X17499775Y-8666925D01*
X17499775Y-8808275D01*
X17641125Y-8808275D01*
X13303250Y-9320200D02*
X13403250Y-9220200D01*
X13303250Y-9120200D01*
X13203250Y-9220200D01*
X13303250Y-9320200D01*
X13442950Y-6284900D02*
X13542950Y-6184900D01*
X13442950Y-6084900D01*
X13342950Y-6184900D01*
X13442950Y-6284900D01*
D13*
X11897028Y-9973214D02*
X11897028Y-9673214D01*
X11968457Y-9673214D01*
X12011314Y-9687500D01*
X12039886Y-9716072D01*
X12054171Y-9744643D01*
X12068457Y-9801786D01*
X12068457Y-9844643D01*
X12054171Y-9901786D01*
X12039886Y-9930357D01*
X12011314Y-9958929D01*
X11968457Y-9973214D01*
X11897028Y-9973214D01*
X12197028Y-9973214D02*
X12197028Y-9773214D01*
X12197028Y-9830357D02*
X12211314Y-9801786D01*
X12225600Y-9787500D01*
X12254171Y-9773214D01*
X12282743Y-9773214D01*
X12382743Y-9973214D02*
X12382743Y-9773214D01*
X12382743Y-9673214D02*
X12368457Y-9687500D01*
X12382743Y-9701786D01*
X12397028Y-9687500D01*
X12382743Y-9673214D01*
X12382743Y-9701786D01*
X12568457Y-9973214D02*
X12539886Y-9958929D01*
X12525600Y-9930357D01*
X12525600Y-9673214D01*
X12725600Y-9973214D02*
X12697028Y-9958929D01*
X12682743Y-9930357D01*
X12682743Y-9673214D01*
X13068457Y-9973214D02*
X13068457Y-9673214D01*
X13168457Y-9887500D01*
X13268457Y-9673214D01*
X13268457Y-9973214D01*
X13539886Y-9973214D02*
X13539886Y-9816072D01*
X13525600Y-9787500D01*
X13497028Y-9773214D01*
X13439886Y-9773214D01*
X13411314Y-9787500D01*
X13539886Y-9958929D02*
X13511314Y-9973214D01*
X13439886Y-9973214D01*
X13411314Y-9958929D01*
X13397028Y-9930357D01*
X13397028Y-9901786D01*
X13411314Y-9873214D01*
X13439886Y-9858929D01*
X13511314Y-9858929D01*
X13539886Y-9844643D01*
X13682743Y-9773214D02*
X13682743Y-10073214D01*
X13682743Y-9787500D02*
X13711314Y-9773214D01*
X13768457Y-9773214D01*
X13797028Y-9787500D01*
X13811314Y-9801786D01*
X13825600Y-9830357D01*
X13825600Y-9916072D01*
X13811314Y-9944643D01*
X13797028Y-9958929D01*
X13768457Y-9973214D01*
X13711314Y-9973214D01*
X13682743Y-9958929D01*
X13954171Y-9944643D02*
X13968457Y-9958929D01*
X13954171Y-9973214D01*
X13939886Y-9958929D01*
X13954171Y-9944643D01*
X13954171Y-9973214D01*
X13954171Y-9787500D02*
X13968457Y-9801786D01*
X13954171Y-9816072D01*
X13939886Y-9801786D01*
X13954171Y-9787500D01*
X13954171Y-9816072D01*
X11585600Y-10447500D02*
X11625600Y-10487500D01*
X11625600Y-10447500D02*
X11585600Y-10487500D01*
X11954171Y-10303214D02*
X11982743Y-10303214D01*
X12011314Y-10317500D01*
X12025600Y-10331786D01*
X12039886Y-10360357D01*
X12054171Y-10417500D01*
X12054171Y-10488929D01*
X12039886Y-10546072D01*
X12025600Y-10574643D01*
X12011314Y-10588929D01*
X11982743Y-10603214D01*
X11954171Y-10603214D01*
X11925600Y-10588929D01*
X11911314Y-10574643D01*
X11897028Y-10546072D01*
X11882743Y-10488929D01*
X11882743Y-10417500D01*
X11897028Y-10360357D01*
X11911314Y-10331786D01*
X11925600Y-10317500D01*
X11954171Y-10303214D01*
X12182743Y-10574643D02*
X12197028Y-10588929D01*
X12182743Y-10603214D01*
X12168457Y-10588929D01*
X12182743Y-10574643D01*
X12182743Y-10603214D01*
X12454171Y-10403214D02*
X12454171Y-10603214D01*
X12382743Y-10288929D02*
X12311314Y-10503214D01*
X12497028Y-10503214D01*
X12668457Y-10303214D02*
X12697028Y-10303214D01*
X12725600Y-10317500D01*
X12739886Y-10331786D01*
X12754171Y-10360357D01*
X12768457Y-10417500D01*
X12768457Y-10488929D01*
X12754171Y-10546072D01*
X12739886Y-10574643D01*
X12725600Y-10588929D01*
X12697028Y-10603214D01*
X12668457Y-10603214D01*
X12639886Y-10588929D01*
X12625600Y-10574643D01*
X12611314Y-10546072D01*
X12597028Y-10488929D01*
X12597028Y-10417500D01*
X12611314Y-10360357D01*
X12625600Y-10331786D01*
X12639886Y-10317500D01*
X12668457Y-10303214D01*
X12897028Y-10603214D02*
X12897028Y-10403214D01*
X12897028Y-10431786D02*
X12911314Y-10417500D01*
X12939886Y-10403214D01*
X12982743Y-10403214D01*
X13011314Y-10417500D01*
X13025600Y-10446072D01*
X13025600Y-10603214D01*
X13025600Y-10446072D02*
X13039886Y-10417500D01*
X13068457Y-10403214D01*
X13111314Y-10403214D01*
X13139886Y-10417500D01*
X13154171Y-10446072D01*
X13154171Y-10603214D01*
X13297028Y-10603214D02*
X13297028Y-10403214D01*
X13297028Y-10431786D02*
X13311314Y-10417500D01*
X13339886Y-10403214D01*
X13382743Y-10403214D01*
X13411314Y-10417500D01*
X13425600Y-10446072D01*
X13425600Y-10603214D01*
X13425600Y-10446072D02*
X13439886Y-10417500D01*
X13468457Y-10403214D01*
X13511314Y-10403214D01*
X13539886Y-10417500D01*
X13554171Y-10446072D01*
X13554171Y-10603214D01*
X14139886Y-10288929D02*
X13882743Y-10674643D01*
X14525600Y-10303214D02*
X14554171Y-10303214D01*
X14582743Y-10317500D01*
X14597028Y-10331786D01*
X14611314Y-10360357D01*
X14625600Y-10417500D01*
X14625600Y-10488929D01*
X14611314Y-10546072D01*
X14597028Y-10574643D01*
X14582743Y-10588929D01*
X14554171Y-10603214D01*
X14525600Y-10603214D01*
X14497028Y-10588929D01*
X14482743Y-10574643D01*
X14468457Y-10546072D01*
X14454171Y-10488929D01*
X14454171Y-10417500D01*
X14468457Y-10360357D01*
X14482743Y-10331786D01*
X14497028Y-10317500D01*
X14525600Y-10303214D01*
X14754171Y-10574643D02*
X14768457Y-10588929D01*
X14754171Y-10603214D01*
X14739886Y-10588929D01*
X14754171Y-10574643D01*
X14754171Y-10603214D01*
X14954171Y-10303214D02*
X14982743Y-10303214D01*
X15011314Y-10317500D01*
X15025600Y-10331786D01*
X15039885Y-10360357D01*
X15054171Y-10417500D01*
X15054171Y-10488929D01*
X15039885Y-10546072D01*
X15025600Y-10574643D01*
X15011314Y-10588929D01*
X14982743Y-10603214D01*
X14954171Y-10603214D01*
X14925600Y-10588929D01*
X14911314Y-10574643D01*
X14897028Y-10546072D01*
X14882743Y-10488929D01*
X14882743Y-10417500D01*
X14897028Y-10360357D01*
X14911314Y-10331786D01*
X14925600Y-10317500D01*
X14954171Y-10303214D01*
X15339885Y-10603214D02*
X15168457Y-10603214D01*
X15254171Y-10603214D02*
X15254171Y-10303214D01*
X15225600Y-10346072D01*
X15197028Y-10374643D01*
X15168457Y-10388929D01*
X15597028Y-10303214D02*
X15539885Y-10303214D01*
X15511314Y-10317500D01*
X15497028Y-10331786D01*
X15468457Y-10374643D01*
X15454171Y-10431786D01*
X15454171Y-10546072D01*
X15468457Y-10574643D01*
X15482743Y-10588929D01*
X15511314Y-10603214D01*
X15568457Y-10603214D01*
X15597028Y-10588929D01*
X15611314Y-10574643D01*
X15625600Y-10546072D01*
X15625600Y-10474643D01*
X15611314Y-10446072D01*
X15597028Y-10431786D01*
X15568457Y-10417500D01*
X15511314Y-10417500D01*
X15482743Y-10431786D01*
X15468457Y-10446072D01*
X15454171Y-10474643D01*
X15739886Y-10303214D02*
X15739886Y-10360357D01*
X15854171Y-10303214D02*
X15854171Y-10360357D01*
X16297028Y-10717500D02*
X16282743Y-10703214D01*
X16254171Y-10660357D01*
X16239885Y-10631786D01*
X16225600Y-10588929D01*
X16211314Y-10517500D01*
X16211314Y-10460357D01*
X16225600Y-10388929D01*
X16239885Y-10346072D01*
X16254171Y-10317500D01*
X16282743Y-10274643D01*
X16297028Y-10260357D01*
X16539885Y-10303214D02*
X16482743Y-10303214D01*
X16454171Y-10317500D01*
X16439885Y-10331786D01*
X16411314Y-10374643D01*
X16397028Y-10431786D01*
X16397028Y-10546072D01*
X16411314Y-10574643D01*
X16425600Y-10588929D01*
X16454171Y-10603214D01*
X16511314Y-10603214D01*
X16539885Y-10588929D01*
X16554171Y-10574643D01*
X16568457Y-10546072D01*
X16568457Y-10474643D01*
X16554171Y-10446072D01*
X16539885Y-10431786D01*
X16511314Y-10417500D01*
X16454171Y-10417500D01*
X16425600Y-10431786D01*
X16411314Y-10446072D01*
X16397028Y-10474643D01*
X16668457Y-10303214D02*
X16868457Y-10303214D01*
X16739885Y-10603214D01*
X17211314Y-10603214D02*
X17211314Y-10303214D01*
X17339886Y-10603214D02*
X17339886Y-10446072D01*
X17325600Y-10417500D01*
X17297028Y-10403214D01*
X17254171Y-10403214D01*
X17225600Y-10417500D01*
X17211314Y-10431786D01*
X17525600Y-10603214D02*
X17497028Y-10588929D01*
X17482743Y-10574643D01*
X17468457Y-10546072D01*
X17468457Y-10460357D01*
X17482743Y-10431786D01*
X17497028Y-10417500D01*
X17525600Y-10403214D01*
X17568457Y-10403214D01*
X17597028Y-10417500D01*
X17611314Y-10431786D01*
X17625600Y-10460357D01*
X17625600Y-10546072D01*
X17611314Y-10574643D01*
X17597028Y-10588929D01*
X17568457Y-10603214D01*
X17525600Y-10603214D01*
X17797028Y-10603214D02*
X17768457Y-10588929D01*
X17754171Y-10560357D01*
X17754171Y-10303214D01*
X18025600Y-10588929D02*
X17997029Y-10603214D01*
X17939886Y-10603214D01*
X17911314Y-10588929D01*
X17897029Y-10560357D01*
X17897029Y-10446072D01*
X17911314Y-10417500D01*
X17939886Y-10403214D01*
X17997029Y-10403214D01*
X18025600Y-10417500D01*
X18039886Y-10446072D01*
X18039886Y-10474643D01*
X17897029Y-10503214D01*
X18154171Y-10588929D02*
X18182743Y-10603214D01*
X18239886Y-10603214D01*
X18268457Y-10588929D01*
X18282743Y-10560357D01*
X18282743Y-10546072D01*
X18268457Y-10517500D01*
X18239886Y-10503214D01*
X18197029Y-10503214D01*
X18168457Y-10488929D01*
X18154171Y-10460357D01*
X18154171Y-10446072D01*
X18168457Y-10417500D01*
X18197029Y-10403214D01*
X18239886Y-10403214D01*
X18268457Y-10417500D01*
X18382743Y-10717500D02*
X18397029Y-10703214D01*
X18425600Y-10660357D01*
X18439886Y-10631786D01*
X18454171Y-10588929D01*
X18468457Y-10517500D01*
X18468457Y-10460357D01*
X18454171Y-10388929D01*
X18439886Y-10346072D01*
X18425600Y-10317500D01*
X18397029Y-10274643D01*
X18382743Y-10260357D01*
X11625600Y-10863500D02*
G75*
G03X11625600Y-10863500I-25000J0D01*
G01*
X11954171Y-10699214D02*
X11982743Y-10699214D01*
X12011314Y-10713500D01*
X12025600Y-10727786D01*
X12039886Y-10756357D01*
X12054171Y-10813500D01*
X12054171Y-10884929D01*
X12039886Y-10942072D01*
X12025600Y-10970643D01*
X12011314Y-10984929D01*
X11982743Y-10999214D01*
X11954171Y-10999214D01*
X11925600Y-10984929D01*
X11911314Y-10970643D01*
X11897028Y-10942072D01*
X11882743Y-10884929D01*
X11882743Y-10813500D01*
X11897028Y-10756357D01*
X11911314Y-10727786D01*
X11925600Y-10713500D01*
X11954171Y-10699214D01*
X12182743Y-10970643D02*
X12197028Y-10984929D01*
X12182743Y-10999214D01*
X12168457Y-10984929D01*
X12182743Y-10970643D01*
X12182743Y-10999214D01*
X12468457Y-10699214D02*
X12325600Y-10699214D01*
X12311314Y-10842072D01*
X12325600Y-10827786D01*
X12354171Y-10813500D01*
X12425600Y-10813500D01*
X12454171Y-10827786D01*
X12468457Y-10842072D01*
X12482743Y-10870643D01*
X12482743Y-10942072D01*
X12468457Y-10970643D01*
X12454171Y-10984929D01*
X12425600Y-10999214D01*
X12354171Y-10999214D01*
X12325600Y-10984929D01*
X12311314Y-10970643D01*
X12668457Y-10699214D02*
X12697028Y-10699214D01*
X12725600Y-10713500D01*
X12739886Y-10727786D01*
X12754171Y-10756357D01*
X12768457Y-10813500D01*
X12768457Y-10884929D01*
X12754171Y-10942072D01*
X12739886Y-10970643D01*
X12725600Y-10984929D01*
X12697028Y-10999214D01*
X12668457Y-10999214D01*
X12639886Y-10984929D01*
X12625600Y-10970643D01*
X12611314Y-10942072D01*
X12597028Y-10884929D01*
X12597028Y-10813500D01*
X12611314Y-10756357D01*
X12625600Y-10727786D01*
X12639886Y-10713500D01*
X12668457Y-10699214D01*
X12897028Y-10999214D02*
X12897028Y-10799214D01*
X12897028Y-10827786D02*
X12911314Y-10813500D01*
X12939886Y-10799214D01*
X12982743Y-10799214D01*
X13011314Y-10813500D01*
X13025600Y-10842072D01*
X13025600Y-10999214D01*
X13025600Y-10842072D02*
X13039886Y-10813500D01*
X13068457Y-10799214D01*
X13111314Y-10799214D01*
X13139886Y-10813500D01*
X13154171Y-10842072D01*
X13154171Y-10999214D01*
X13297028Y-10999214D02*
X13297028Y-10799214D01*
X13297028Y-10827786D02*
X13311314Y-10813500D01*
X13339886Y-10799214D01*
X13382743Y-10799214D01*
X13411314Y-10813500D01*
X13425600Y-10842072D01*
X13425600Y-10999214D01*
X13425600Y-10842072D02*
X13439886Y-10813500D01*
X13468457Y-10799214D01*
X13511314Y-10799214D01*
X13539886Y-10813500D01*
X13554171Y-10842072D01*
X13554171Y-10999214D01*
X14139886Y-10684929D02*
X13882743Y-11070643D01*
X14525600Y-10699214D02*
X14554171Y-10699214D01*
X14582743Y-10713500D01*
X14597028Y-10727786D01*
X14611314Y-10756357D01*
X14625600Y-10813500D01*
X14625600Y-10884929D01*
X14611314Y-10942072D01*
X14597028Y-10970643D01*
X14582743Y-10984929D01*
X14554171Y-10999214D01*
X14525600Y-10999214D01*
X14497028Y-10984929D01*
X14482743Y-10970643D01*
X14468457Y-10942072D01*
X14454171Y-10884929D01*
X14454171Y-10813500D01*
X14468457Y-10756357D01*
X14482743Y-10727786D01*
X14497028Y-10713500D01*
X14525600Y-10699214D01*
X14754171Y-10970643D02*
X14768457Y-10984929D01*
X14754171Y-10999214D01*
X14739886Y-10984929D01*
X14754171Y-10970643D01*
X14754171Y-10999214D01*
X14954171Y-10699214D02*
X14982743Y-10699214D01*
X15011314Y-10713500D01*
X15025600Y-10727786D01*
X15039885Y-10756357D01*
X15054171Y-10813500D01*
X15054171Y-10884929D01*
X15039885Y-10942072D01*
X15025600Y-10970643D01*
X15011314Y-10984929D01*
X14982743Y-10999214D01*
X14954171Y-10999214D01*
X14925600Y-10984929D01*
X14911314Y-10970643D01*
X14897028Y-10942072D01*
X14882743Y-10884929D01*
X14882743Y-10813500D01*
X14897028Y-10756357D01*
X14911314Y-10727786D01*
X14925600Y-10713500D01*
X14954171Y-10699214D01*
X15168457Y-10727786D02*
X15182743Y-10713500D01*
X15211314Y-10699214D01*
X15282743Y-10699214D01*
X15311314Y-10713500D01*
X15325600Y-10727786D01*
X15339885Y-10756357D01*
X15339885Y-10784929D01*
X15325600Y-10827786D01*
X15154171Y-10999214D01*
X15339885Y-10999214D01*
X15525600Y-10699214D02*
X15554171Y-10699214D01*
X15582743Y-10713500D01*
X15597028Y-10727786D01*
X15611314Y-10756357D01*
X15625600Y-10813500D01*
X15625600Y-10884929D01*
X15611314Y-10942072D01*
X15597028Y-10970643D01*
X15582743Y-10984929D01*
X15554171Y-10999214D01*
X15525600Y-10999214D01*
X15497028Y-10984929D01*
X15482743Y-10970643D01*
X15468457Y-10942072D01*
X15454171Y-10884929D01*
X15454171Y-10813500D01*
X15468457Y-10756357D01*
X15482743Y-10727786D01*
X15497028Y-10713500D01*
X15525600Y-10699214D01*
X15739886Y-10699214D02*
X15739886Y-10756357D01*
X15854171Y-10699214D02*
X15854171Y-10756357D01*
X16297028Y-11113500D02*
X16282743Y-11099214D01*
X16254171Y-11056357D01*
X16239885Y-11027786D01*
X16225600Y-10984929D01*
X16211314Y-10913500D01*
X16211314Y-10856357D01*
X16225600Y-10784929D01*
X16239885Y-10742072D01*
X16254171Y-10713500D01*
X16282743Y-10670643D01*
X16297028Y-10656357D01*
X16568457Y-10999214D02*
X16397028Y-10999214D01*
X16482743Y-10999214D02*
X16482743Y-10699214D01*
X16454171Y-10742072D01*
X16425600Y-10770643D01*
X16397028Y-10784929D01*
X16854171Y-10999214D02*
X16682743Y-10999214D01*
X16768457Y-10999214D02*
X16768457Y-10699214D01*
X16739885Y-10742072D01*
X16711314Y-10770643D01*
X16682743Y-10784929D01*
X17211314Y-10999214D02*
X17211314Y-10699214D01*
X17339886Y-10999214D02*
X17339886Y-10842072D01*
X17325600Y-10813500D01*
X17297028Y-10799214D01*
X17254171Y-10799214D01*
X17225600Y-10813500D01*
X17211314Y-10827786D01*
X17525600Y-10999214D02*
X17497028Y-10984929D01*
X17482743Y-10970643D01*
X17468457Y-10942072D01*
X17468457Y-10856357D01*
X17482743Y-10827786D01*
X17497028Y-10813500D01*
X17525600Y-10799214D01*
X17568457Y-10799214D01*
X17597028Y-10813500D01*
X17611314Y-10827786D01*
X17625600Y-10856357D01*
X17625600Y-10942072D01*
X17611314Y-10970643D01*
X17597028Y-10984929D01*
X17568457Y-10999214D01*
X17525600Y-10999214D01*
X17797028Y-10999214D02*
X17768457Y-10984929D01*
X17754171Y-10956357D01*
X17754171Y-10699214D01*
X18025600Y-10984929D02*
X17997029Y-10999214D01*
X17939886Y-10999214D01*
X17911314Y-10984929D01*
X17897029Y-10956357D01*
X17897029Y-10842072D01*
X17911314Y-10813500D01*
X17939886Y-10799214D01*
X17997029Y-10799214D01*
X18025600Y-10813500D01*
X18039886Y-10842072D01*
X18039886Y-10870643D01*
X17897029Y-10899214D01*
X18154171Y-10984929D02*
X18182743Y-10999214D01*
X18239886Y-10999214D01*
X18268457Y-10984929D01*
X18282743Y-10956357D01*
X18282743Y-10942072D01*
X18268457Y-10913500D01*
X18239886Y-10899214D01*
X18197029Y-10899214D01*
X18168457Y-10884929D01*
X18154171Y-10856357D01*
X18154171Y-10842072D01*
X18168457Y-10813500D01*
X18197029Y-10799214D01*
X18239886Y-10799214D01*
X18268457Y-10813500D01*
X18382743Y-11113500D02*
X18397029Y-11099214D01*
X18425600Y-11056357D01*
X18439886Y-11027786D01*
X18454171Y-10984929D01*
X18468457Y-10913500D01*
X18468457Y-10856357D01*
X18454171Y-10784929D01*
X18439886Y-10742072D01*
X18425600Y-10713500D01*
X18397029Y-10670643D01*
X18382743Y-10656357D01*
X11585600Y-11219500D02*
X11585600Y-11299500D01*
X11545600Y-11259500D02*
X11625600Y-11259500D01*
X11954171Y-11095214D02*
X11982743Y-11095214D01*
X12011314Y-11109500D01*
X12025600Y-11123786D01*
X12039886Y-11152357D01*
X12054171Y-11209500D01*
X12054171Y-11280929D01*
X12039886Y-11338071D01*
X12025600Y-11366643D01*
X12011314Y-11380929D01*
X11982743Y-11395214D01*
X11954171Y-11395214D01*
X11925600Y-11380929D01*
X11911314Y-11366643D01*
X11897028Y-11338071D01*
X11882743Y-11280929D01*
X11882743Y-11209500D01*
X11897028Y-11152357D01*
X11911314Y-11123786D01*
X11925600Y-11109500D01*
X11954171Y-11095214D01*
X12182743Y-11366643D02*
X12197028Y-11380929D01*
X12182743Y-11395214D01*
X12168457Y-11380929D01*
X12182743Y-11366643D01*
X12182743Y-11395214D01*
X12368457Y-11223786D02*
X12339886Y-11209500D01*
X12325600Y-11195214D01*
X12311314Y-11166643D01*
X12311314Y-11152357D01*
X12325600Y-11123786D01*
X12339886Y-11109500D01*
X12368457Y-11095214D01*
X12425600Y-11095214D01*
X12454171Y-11109500D01*
X12468457Y-11123786D01*
X12482743Y-11152357D01*
X12482743Y-11166643D01*
X12468457Y-11195214D01*
X12454171Y-11209500D01*
X12425600Y-11223786D01*
X12368457Y-11223786D01*
X12339886Y-11238071D01*
X12325600Y-11252357D01*
X12311314Y-11280929D01*
X12311314Y-11338071D01*
X12325600Y-11366643D01*
X12339886Y-11380929D01*
X12368457Y-11395214D01*
X12425600Y-11395214D01*
X12454171Y-11380929D01*
X12468457Y-11366643D01*
X12482743Y-11338071D01*
X12482743Y-11280929D01*
X12468457Y-11252357D01*
X12454171Y-11238071D01*
X12425600Y-11223786D01*
X12668457Y-11095214D02*
X12697028Y-11095214D01*
X12725600Y-11109500D01*
X12739886Y-11123786D01*
X12754171Y-11152357D01*
X12768457Y-11209500D01*
X12768457Y-11280929D01*
X12754171Y-11338071D01*
X12739886Y-11366643D01*
X12725600Y-11380929D01*
X12697028Y-11395214D01*
X12668457Y-11395214D01*
X12639886Y-11380929D01*
X12625600Y-11366643D01*
X12611314Y-11338071D01*
X12597028Y-11280929D01*
X12597028Y-11209500D01*
X12611314Y-11152357D01*
X12625600Y-11123786D01*
X12639886Y-11109500D01*
X12668457Y-11095214D01*
X12897028Y-11395214D02*
X12897028Y-11195214D01*
X12897028Y-11223786D02*
X12911314Y-11209500D01*
X12939886Y-11195214D01*
X12982743Y-11195214D01*
X13011314Y-11209500D01*
X13025600Y-11238071D01*
X13025600Y-11395214D01*
X13025600Y-11238071D02*
X13039886Y-11209500D01*
X13068457Y-11195214D01*
X13111314Y-11195214D01*
X13139886Y-11209500D01*
X13154171Y-11238071D01*
X13154171Y-11395214D01*
X13297028Y-11395214D02*
X13297028Y-11195214D01*
X13297028Y-11223786D02*
X13311314Y-11209500D01*
X13339886Y-11195214D01*
X13382743Y-11195214D01*
X13411314Y-11209500D01*
X13425600Y-11238071D01*
X13425600Y-11395214D01*
X13425600Y-11238071D02*
X13439886Y-11209500D01*
X13468457Y-11195214D01*
X13511314Y-11195214D01*
X13539886Y-11209500D01*
X13554171Y-11238071D01*
X13554171Y-11395214D01*
X14139886Y-11080929D02*
X13882743Y-11466643D01*
X14525600Y-11095214D02*
X14554171Y-11095214D01*
X14582743Y-11109500D01*
X14597028Y-11123786D01*
X14611314Y-11152357D01*
X14625600Y-11209500D01*
X14625600Y-11280929D01*
X14611314Y-11338071D01*
X14597028Y-11366643D01*
X14582743Y-11380929D01*
X14554171Y-11395214D01*
X14525600Y-11395214D01*
X14497028Y-11380929D01*
X14482743Y-11366643D01*
X14468457Y-11338071D01*
X14454171Y-11280929D01*
X14454171Y-11209500D01*
X14468457Y-11152357D01*
X14482743Y-11123786D01*
X14497028Y-11109500D01*
X14525600Y-11095214D01*
X14754171Y-11366643D02*
X14768457Y-11380929D01*
X14754171Y-11395214D01*
X14739886Y-11380929D01*
X14754171Y-11366643D01*
X14754171Y-11395214D01*
X14954171Y-11095214D02*
X14982743Y-11095214D01*
X15011314Y-11109500D01*
X15025600Y-11123786D01*
X15039885Y-11152357D01*
X15054171Y-11209500D01*
X15054171Y-11280929D01*
X15039885Y-11338071D01*
X15025600Y-11366643D01*
X15011314Y-11380929D01*
X14982743Y-11395214D01*
X14954171Y-11395214D01*
X14925600Y-11380929D01*
X14911314Y-11366643D01*
X14897028Y-11338071D01*
X14882743Y-11280929D01*
X14882743Y-11209500D01*
X14897028Y-11152357D01*
X14911314Y-11123786D01*
X14925600Y-11109500D01*
X14954171Y-11095214D01*
X15154171Y-11095214D02*
X15339885Y-11095214D01*
X15239885Y-11209500D01*
X15282743Y-11209500D01*
X15311314Y-11223786D01*
X15325600Y-11238071D01*
X15339885Y-11266643D01*
X15339885Y-11338071D01*
X15325600Y-11366643D01*
X15311314Y-11380929D01*
X15282743Y-11395214D01*
X15197028Y-11395214D01*
X15168457Y-11380929D01*
X15154171Y-11366643D01*
X15625600Y-11395214D02*
X15454171Y-11395214D01*
X15539885Y-11395214D02*
X15539885Y-11095214D01*
X15511314Y-11138072D01*
X15482743Y-11166643D01*
X15454171Y-11180929D01*
X15739886Y-11095214D02*
X15739886Y-11152357D01*
X15854171Y-11095214D02*
X15854171Y-11152357D01*
X16297028Y-11509500D02*
X16282743Y-11495214D01*
X16254171Y-11452357D01*
X16239885Y-11423786D01*
X16225600Y-11380929D01*
X16211314Y-11309500D01*
X16211314Y-11252357D01*
X16225600Y-11180929D01*
X16239885Y-11138072D01*
X16254171Y-11109500D01*
X16282743Y-11066643D01*
X16297028Y-11052357D01*
X16397028Y-11123786D02*
X16411314Y-11109500D01*
X16439885Y-11095214D01*
X16511314Y-11095214D01*
X16539885Y-11109500D01*
X16554171Y-11123786D01*
X16568457Y-11152357D01*
X16568457Y-11180929D01*
X16554171Y-11223786D01*
X16382743Y-11395214D01*
X16568457Y-11395214D01*
X16925600Y-11395214D02*
X16925600Y-11095214D01*
X17054171Y-11395214D02*
X17054171Y-11238071D01*
X17039886Y-11209500D01*
X17011314Y-11195214D01*
X16968457Y-11195214D01*
X16939886Y-11209500D01*
X16925600Y-11223786D01*
X17239886Y-11395214D02*
X17211314Y-11380929D01*
X17197028Y-11366643D01*
X17182743Y-11338071D01*
X17182743Y-11252357D01*
X17197028Y-11223786D01*
X17211314Y-11209500D01*
X17239886Y-11195214D01*
X17282743Y-11195214D01*
X17311314Y-11209500D01*
X17325600Y-11223786D01*
X17339886Y-11252357D01*
X17339886Y-11338071D01*
X17325600Y-11366643D01*
X17311314Y-11380929D01*
X17282743Y-11395214D01*
X17239886Y-11395214D01*
X17511314Y-11395214D02*
X17482743Y-11380929D01*
X17468457Y-11352357D01*
X17468457Y-11095214D01*
X17739886Y-11380929D02*
X17711314Y-11395214D01*
X17654171Y-11395214D01*
X17625600Y-11380929D01*
X17611314Y-11352357D01*
X17611314Y-11238071D01*
X17625600Y-11209500D01*
X17654171Y-11195214D01*
X17711314Y-11195214D01*
X17739886Y-11209500D01*
X17754171Y-11238071D01*
X17754171Y-11266643D01*
X17611314Y-11295214D01*
X17868457Y-11380929D02*
X17897029Y-11395214D01*
X17954171Y-11395214D01*
X17982743Y-11380929D01*
X17997029Y-11352357D01*
X17997029Y-11338071D01*
X17982743Y-11309500D01*
X17954171Y-11295214D01*
X17911314Y-11295214D01*
X17882743Y-11280929D01*
X17868457Y-11252357D01*
X17868457Y-11238071D01*
X17882743Y-11209500D01*
X17911314Y-11195214D01*
X17954171Y-11195214D01*
X17982743Y-11209500D01*
X18097028Y-11509500D02*
X18111314Y-11495214D01*
X18139886Y-11452357D01*
X18154171Y-11423786D01*
X18168457Y-11380929D01*
X18182743Y-11309500D01*
X18182743Y-11252357D01*
X18168457Y-11180929D01*
X18154171Y-11138072D01*
X18139886Y-11109500D01*
X18111314Y-11066643D01*
X18097028Y-11052357D01*
X11596326Y-11726175D02*
X11596326Y-11584825D01*
X11454976Y-11584825D01*
X11454976Y-11726175D01*
X11596326Y-11726175D01*
X11882743Y-11519786D02*
X11897028Y-11505500D01*
X11925600Y-11491214D01*
X11997028Y-11491214D01*
X12025600Y-11505500D01*
X12039886Y-11519786D01*
X12054171Y-11548357D01*
X12054171Y-11576929D01*
X12039886Y-11619786D01*
X11868457Y-11791214D01*
X12054171Y-11791214D01*
X12182743Y-11762643D02*
X12197028Y-11776929D01*
X12182743Y-11791214D01*
X12168457Y-11776929D01*
X12182743Y-11762643D01*
X12182743Y-11791214D01*
X12382743Y-11491214D02*
X12411314Y-11491214D01*
X12439886Y-11505500D01*
X12454171Y-11519786D01*
X12468457Y-11548357D01*
X12482743Y-11605500D01*
X12482743Y-11676929D01*
X12468457Y-11734071D01*
X12454171Y-11762643D01*
X12439886Y-11776929D01*
X12411314Y-11791214D01*
X12382743Y-11791214D01*
X12354171Y-11776929D01*
X12339886Y-11762643D01*
X12325600Y-11734071D01*
X12311314Y-11676929D01*
X12311314Y-11605500D01*
X12325600Y-11548357D01*
X12339886Y-11519786D01*
X12354171Y-11505500D01*
X12382743Y-11491214D01*
X12668457Y-11491214D02*
X12697028Y-11491214D01*
X12725600Y-11505500D01*
X12739886Y-11519786D01*
X12754171Y-11548357D01*
X12768457Y-11605500D01*
X12768457Y-11676929D01*
X12754171Y-11734071D01*
X12739886Y-11762643D01*
X12725600Y-11776929D01*
X12697028Y-11791214D01*
X12668457Y-11791214D01*
X12639886Y-11776929D01*
X12625600Y-11762643D01*
X12611314Y-11734071D01*
X12597028Y-11676929D01*
X12597028Y-11605500D01*
X12611314Y-11548357D01*
X12625600Y-11519786D01*
X12639886Y-11505500D01*
X12668457Y-11491214D01*
X12897028Y-11791214D02*
X12897028Y-11591214D01*
X12897028Y-11619786D02*
X12911314Y-11605500D01*
X12939886Y-11591214D01*
X12982743Y-11591214D01*
X13011314Y-11605500D01*
X13025600Y-11634071D01*
X13025600Y-11791214D01*
X13025600Y-11634071D02*
X13039886Y-11605500D01*
X13068457Y-11591214D01*
X13111314Y-11591214D01*
X13139886Y-11605500D01*
X13154171Y-11634071D01*
X13154171Y-11791214D01*
X13297028Y-11791214D02*
X13297028Y-11591214D01*
X13297028Y-11619786D02*
X13311314Y-11605500D01*
X13339886Y-11591214D01*
X13382743Y-11591214D01*
X13411314Y-11605500D01*
X13425600Y-11634071D01*
X13425600Y-11791214D01*
X13425600Y-11634071D02*
X13439886Y-11605500D01*
X13468457Y-11591214D01*
X13511314Y-11591214D01*
X13539886Y-11605500D01*
X13554171Y-11634071D01*
X13554171Y-11791214D01*
X14139886Y-11476929D02*
X13882743Y-11862643D01*
X14525600Y-11491214D02*
X14554171Y-11491214D01*
X14582743Y-11505500D01*
X14597028Y-11519786D01*
X14611314Y-11548357D01*
X14625600Y-11605500D01*
X14625600Y-11676929D01*
X14611314Y-11734071D01*
X14597028Y-11762643D01*
X14582743Y-11776929D01*
X14554171Y-11791214D01*
X14525600Y-11791214D01*
X14497028Y-11776929D01*
X14482743Y-11762643D01*
X14468457Y-11734071D01*
X14454171Y-11676929D01*
X14454171Y-11605500D01*
X14468457Y-11548357D01*
X14482743Y-11519786D01*
X14497028Y-11505500D01*
X14525600Y-11491214D01*
X14754171Y-11762643D02*
X14768457Y-11776929D01*
X14754171Y-11791214D01*
X14739886Y-11776929D01*
X14754171Y-11762643D01*
X14754171Y-11791214D01*
X14954171Y-11491214D02*
X14982743Y-11491214D01*
X15011314Y-11505500D01*
X15025600Y-11519786D01*
X15039885Y-11548357D01*
X15054171Y-11605500D01*
X15054171Y-11676929D01*
X15039885Y-11734071D01*
X15025600Y-11762643D01*
X15011314Y-11776929D01*
X14982743Y-11791214D01*
X14954171Y-11791214D01*
X14925600Y-11776929D01*
X14911314Y-11762643D01*
X14897028Y-11734071D01*
X14882743Y-11676929D01*
X14882743Y-11605500D01*
X14897028Y-11548357D01*
X14911314Y-11519786D01*
X14925600Y-11505500D01*
X14954171Y-11491214D01*
X15154171Y-11491214D02*
X15354171Y-11491214D01*
X15225600Y-11791214D01*
X15482743Y-11791214D02*
X15539885Y-11791214D01*
X15568457Y-11776929D01*
X15582743Y-11762643D01*
X15611314Y-11719786D01*
X15625600Y-11662643D01*
X15625600Y-11548357D01*
X15611314Y-11519786D01*
X15597028Y-11505500D01*
X15568457Y-11491214D01*
X15511314Y-11491214D01*
X15482743Y-11505500D01*
X15468457Y-11519786D01*
X15454171Y-11548357D01*
X15454171Y-11619786D01*
X15468457Y-11648357D01*
X15482743Y-11662643D01*
X15511314Y-11676929D01*
X15568457Y-11676929D01*
X15597028Y-11662643D01*
X15611314Y-11648357D01*
X15625600Y-11619786D01*
X15739886Y-11491214D02*
X15739886Y-11548357D01*
X15854171Y-11491214D02*
X15854171Y-11548357D01*
X16297028Y-11905500D02*
X16282743Y-11891214D01*
X16254171Y-11848357D01*
X16239885Y-11819786D01*
X16225600Y-11776929D01*
X16211314Y-11705500D01*
X16211314Y-11648357D01*
X16225600Y-11576929D01*
X16239885Y-11534071D01*
X16254171Y-11505500D01*
X16282743Y-11462643D01*
X16297028Y-11448357D01*
X16382743Y-11491214D02*
X16568457Y-11491214D01*
X16468457Y-11605500D01*
X16511314Y-11605500D01*
X16539885Y-11619786D01*
X16554171Y-11634071D01*
X16568457Y-11662643D01*
X16568457Y-11734071D01*
X16554171Y-11762643D01*
X16539885Y-11776929D01*
X16511314Y-11791214D01*
X16425600Y-11791214D01*
X16397028Y-11776929D01*
X16382743Y-11762643D01*
X16925600Y-11791214D02*
X16925600Y-11491214D01*
X17054171Y-11791214D02*
X17054171Y-11634071D01*
X17039886Y-11605500D01*
X17011314Y-11591214D01*
X16968457Y-11591214D01*
X16939886Y-11605500D01*
X16925600Y-11619786D01*
X17239886Y-11791214D02*
X17211314Y-11776929D01*
X17197028Y-11762643D01*
X17182743Y-11734071D01*
X17182743Y-11648357D01*
X17197028Y-11619786D01*
X17211314Y-11605500D01*
X17239886Y-11591214D01*
X17282743Y-11591214D01*
X17311314Y-11605500D01*
X17325600Y-11619786D01*
X17339886Y-11648357D01*
X17339886Y-11734071D01*
X17325600Y-11762643D01*
X17311314Y-11776929D01*
X17282743Y-11791214D01*
X17239886Y-11791214D01*
X17511314Y-11791214D02*
X17482743Y-11776929D01*
X17468457Y-11748357D01*
X17468457Y-11491214D01*
X17739886Y-11776929D02*
X17711314Y-11791214D01*
X17654171Y-11791214D01*
X17625600Y-11776929D01*
X17611314Y-11748357D01*
X17611314Y-11634071D01*
X17625600Y-11605500D01*
X17654171Y-11591214D01*
X17711314Y-11591214D01*
X17739886Y-11605500D01*
X17754171Y-11634071D01*
X17754171Y-11662643D01*
X17611314Y-11691214D01*
X17868457Y-11776929D02*
X17897029Y-11791214D01*
X17954171Y-11791214D01*
X17982743Y-11776929D01*
X17997029Y-11748357D01*
X17997029Y-11734071D01*
X17982743Y-11705500D01*
X17954171Y-11691214D01*
X17911314Y-11691214D01*
X17882743Y-11676929D01*
X17868457Y-11648357D01*
X17868457Y-11634071D01*
X17882743Y-11605500D01*
X17911314Y-11591214D01*
X17954171Y-11591214D01*
X17982743Y-11605500D01*
X18097028Y-11905500D02*
X18111314Y-11891214D01*
X18139886Y-11848357D01*
X18154171Y-11819786D01*
X18168457Y-11776929D01*
X18182743Y-11705500D01*
X18182743Y-11648357D01*
X18168457Y-11576929D01*
X18154171Y-11534071D01*
X18139886Y-11505500D01*
X18111314Y-11462643D01*
X18097028Y-11448357D01*
X11525600Y-12151500D02*
X11625600Y-12051500D01*
X11525600Y-11951500D01*
X11425600Y-12051500D01*
X11525600Y-12151500D01*
X11882743Y-11915786D02*
X11897028Y-11901500D01*
X11925600Y-11887214D01*
X11997028Y-11887214D01*
X12025600Y-11901500D01*
X12039886Y-11915786D01*
X12054171Y-11944357D01*
X12054171Y-11972929D01*
X12039886Y-12015786D01*
X11868457Y-12187214D01*
X12054171Y-12187214D01*
X12182743Y-12158643D02*
X12197028Y-12172929D01*
X12182743Y-12187214D01*
X12168457Y-12172929D01*
X12182743Y-12158643D01*
X12182743Y-12187214D01*
X12382743Y-11887214D02*
X12411314Y-11887214D01*
X12439886Y-11901500D01*
X12454171Y-11915786D01*
X12468457Y-11944357D01*
X12482743Y-12001500D01*
X12482743Y-12072929D01*
X12468457Y-12130071D01*
X12454171Y-12158643D01*
X12439886Y-12172929D01*
X12411314Y-12187214D01*
X12382743Y-12187214D01*
X12354171Y-12172929D01*
X12339886Y-12158643D01*
X12325600Y-12130071D01*
X12311314Y-12072929D01*
X12311314Y-12001500D01*
X12325600Y-11944357D01*
X12339886Y-11915786D01*
X12354171Y-11901500D01*
X12382743Y-11887214D01*
X12668457Y-11887214D02*
X12697028Y-11887214D01*
X12725600Y-11901500D01*
X12739886Y-11915786D01*
X12754171Y-11944357D01*
X12768457Y-12001500D01*
X12768457Y-12072929D01*
X12754171Y-12130071D01*
X12739886Y-12158643D01*
X12725600Y-12172929D01*
X12697028Y-12187214D01*
X12668457Y-12187214D01*
X12639886Y-12172929D01*
X12625600Y-12158643D01*
X12611314Y-12130071D01*
X12597028Y-12072929D01*
X12597028Y-12001500D01*
X12611314Y-11944357D01*
X12625600Y-11915786D01*
X12639886Y-11901500D01*
X12668457Y-11887214D01*
X12897028Y-12187214D02*
X12897028Y-11987214D01*
X12897028Y-12015786D02*
X12911314Y-12001500D01*
X12939886Y-11987214D01*
X12982743Y-11987214D01*
X13011314Y-12001500D01*
X13025600Y-12030071D01*
X13025600Y-12187214D01*
X13025600Y-12030071D02*
X13039886Y-12001500D01*
X13068457Y-11987214D01*
X13111314Y-11987214D01*
X13139886Y-12001500D01*
X13154171Y-12030071D01*
X13154171Y-12187214D01*
X13297028Y-12187214D02*
X13297028Y-11987214D01*
X13297028Y-12015786D02*
X13311314Y-12001500D01*
X13339886Y-11987214D01*
X13382743Y-11987214D01*
X13411314Y-12001500D01*
X13425600Y-12030071D01*
X13425600Y-12187214D01*
X13425600Y-12030071D02*
X13439886Y-12001500D01*
X13468457Y-11987214D01*
X13511314Y-11987214D01*
X13539886Y-12001500D01*
X13554171Y-12030071D01*
X13554171Y-12187214D01*
X14139886Y-11872929D02*
X13882743Y-12258643D01*
X14525600Y-11887214D02*
X14554171Y-11887214D01*
X14582743Y-11901500D01*
X14597028Y-11915786D01*
X14611314Y-11944357D01*
X14625600Y-12001500D01*
X14625600Y-12072929D01*
X14611314Y-12130071D01*
X14597028Y-12158643D01*
X14582743Y-12172929D01*
X14554171Y-12187214D01*
X14525600Y-12187214D01*
X14497028Y-12172929D01*
X14482743Y-12158643D01*
X14468457Y-12130071D01*
X14454171Y-12072929D01*
X14454171Y-12001500D01*
X14468457Y-11944357D01*
X14482743Y-11915786D01*
X14497028Y-11901500D01*
X14525600Y-11887214D01*
X14754171Y-12158643D02*
X14768457Y-12172929D01*
X14754171Y-12187214D01*
X14739886Y-12172929D01*
X14754171Y-12158643D01*
X14754171Y-12187214D01*
X14954171Y-11887214D02*
X14982743Y-11887214D01*
X15011314Y-11901500D01*
X15025600Y-11915786D01*
X15039885Y-11944357D01*
X15054171Y-12001500D01*
X15054171Y-12072929D01*
X15039885Y-12130071D01*
X15025600Y-12158643D01*
X15011314Y-12172929D01*
X14982743Y-12187214D01*
X14954171Y-12187214D01*
X14925600Y-12172929D01*
X14911314Y-12158643D01*
X14897028Y-12130071D01*
X14882743Y-12072929D01*
X14882743Y-12001500D01*
X14897028Y-11944357D01*
X14911314Y-11915786D01*
X14925600Y-11901500D01*
X14954171Y-11887214D01*
X15154171Y-11887214D02*
X15354171Y-11887214D01*
X15225600Y-12187214D01*
X15482743Y-12187214D02*
X15539885Y-12187214D01*
X15568457Y-12172929D01*
X15582743Y-12158643D01*
X15611314Y-12115786D01*
X15625600Y-12058643D01*
X15625600Y-11944357D01*
X15611314Y-11915786D01*
X15597028Y-11901500D01*
X15568457Y-11887214D01*
X15511314Y-11887214D01*
X15482743Y-11901500D01*
X15468457Y-11915786D01*
X15454171Y-11944357D01*
X15454171Y-12015786D01*
X15468457Y-12044357D01*
X15482743Y-12058643D01*
X15511314Y-12072929D01*
X15568457Y-12072929D01*
X15597028Y-12058643D01*
X15611314Y-12044357D01*
X15625600Y-12015786D01*
X15739886Y-11887214D02*
X15739886Y-11944357D01*
X15854171Y-11887214D02*
X15854171Y-11944357D01*
X16297028Y-12301500D02*
X16282743Y-12287214D01*
X16254171Y-12244357D01*
X16239885Y-12215786D01*
X16225600Y-12172929D01*
X16211314Y-12101500D01*
X16211314Y-12044357D01*
X16225600Y-11972929D01*
X16239885Y-11930071D01*
X16254171Y-11901500D01*
X16282743Y-11858643D01*
X16297028Y-11844357D01*
X16397028Y-11915786D02*
X16411314Y-11901500D01*
X16439885Y-11887214D01*
X16511314Y-11887214D01*
X16539885Y-11901500D01*
X16554171Y-11915786D01*
X16568457Y-11944357D01*
X16568457Y-11972929D01*
X16554171Y-12015786D01*
X16382743Y-12187214D01*
X16568457Y-12187214D01*
X16925600Y-12187214D02*
X16925600Y-11887214D01*
X17054171Y-12187214D02*
X17054171Y-12030071D01*
X17039886Y-12001500D01*
X17011314Y-11987214D01*
X16968457Y-11987214D01*
X16939886Y-12001500D01*
X16925600Y-12015786D01*
X17239886Y-12187214D02*
X17211314Y-12172929D01*
X17197028Y-12158643D01*
X17182743Y-12130071D01*
X17182743Y-12044357D01*
X17197028Y-12015786D01*
X17211314Y-12001500D01*
X17239886Y-11987214D01*
X17282743Y-11987214D01*
X17311314Y-12001500D01*
X17325600Y-12015786D01*
X17339886Y-12044357D01*
X17339886Y-12130071D01*
X17325600Y-12158643D01*
X17311314Y-12172929D01*
X17282743Y-12187214D01*
X17239886Y-12187214D01*
X17511314Y-12187214D02*
X17482743Y-12172929D01*
X17468457Y-12144357D01*
X17468457Y-11887214D01*
X17739886Y-12172929D02*
X17711314Y-12187214D01*
X17654171Y-12187214D01*
X17625600Y-12172929D01*
X17611314Y-12144357D01*
X17611314Y-12030071D01*
X17625600Y-12001500D01*
X17654171Y-11987214D01*
X17711314Y-11987214D01*
X17739886Y-12001500D01*
X17754171Y-12030071D01*
X17754171Y-12058643D01*
X17611314Y-12087214D01*
X17868457Y-12172929D02*
X17897029Y-12187214D01*
X17954171Y-12187214D01*
X17982743Y-12172929D01*
X17997029Y-12144357D01*
X17997029Y-12130071D01*
X17982743Y-12101500D01*
X17954171Y-12087214D01*
X17911314Y-12087214D01*
X17882743Y-12072929D01*
X17868457Y-12044357D01*
X17868457Y-12030071D01*
X17882743Y-12001500D01*
X17911314Y-11987214D01*
X17954171Y-11987214D01*
X17982743Y-12001500D01*
X18097028Y-12301500D02*
X18111314Y-12287214D01*
X18139886Y-12244357D01*
X18154171Y-12215786D01*
X18168457Y-12172929D01*
X18182743Y-12101500D01*
X18182743Y-12044357D01*
X18168457Y-11972929D01*
X18154171Y-11930071D01*
X18139886Y-11901500D01*
X18111314Y-11858643D01*
X18097028Y-11844357D01*
M02*
